<svg xmlns="http://www.w3.org/2000/svg" xmlns:xlink="http://www.w3.org/1999/xlink" version="1.0" x="0px" y="0px" viewBox="0 24 48 96">
<svg xmlns="http://www.w3.org/2000/svg" xmlns:xlink="http://www.w3.org/1999/xlink" version="1.0" x="0px" y="0px" viewBox="0 0 48 48">
	<path fill="#FF9800" d="M15.546,12.859C17.897,11.073,20.82,10,24,10s6.103,1.073,8.454,2.859l3.996-4.495	C33.033,5.639,28.711,4,24,4s-9.033,1.639-12.45,4.364L15.546,12.859z"></path>
	<path fill="#455A64" d="M37.951,9.684l-3.988,4.487C36.458,16.699,38,20.168,38,24c0,2.831-0.847,5.461-2.291,7.663l-7.037-6.45	L25,16v13.986l6.41,5.877C29.259,37.209,26.725,38,24,38s-5.259-0.791-7.41-2.137L23,29.986V16l-3.672,9.213l-7.037,6.45	C10.847,29.461,10,26.831,10,24c0-3.832,1.542-7.301,4.036-9.829l-3.988-4.487C6.322,13.317,4,18.384,4,24c0,11.046,8.954,20,20,20	s20-8.954,20-20C44,18.384,41.678,13.317,37.951,9.684z"></path>
</svg>
<svg xmlns="http://www.w3.org/2000/svg" xmlns:xlink="http://www.w3.org/1999/xlink" version="1.0" x="0px" y="48px" viewBox="0 0 48 48">
	<path fill="#CCCCCC" d="M15.546,12.859C17.897,11.073,20.82,10,24,10s6.103,1.073,8.454,2.859l3.996-4.495	C33.033,5.639,28.711,4,24,4s-9.033,1.639-12.45,4.364L15.546,12.859z"></path>
	<path fill="#CCCCCC" d="M37.951,9.684l-3.988,4.487C36.458,16.699,38,20.168,38,24c0,2.831-0.847,5.461-2.291,7.663l-7.037-6.45	L25,16v13.986l6.41,5.877C29.259,37.209,26.725,38,24,38s-5.259-0.791-7.41-2.137L23,29.986V16l-3.672,9.213l-7.037,6.45	C10.847,29.461,10,26.831,10,24c0-3.832,1.542-7.301,4.036-9.829l-3.988-4.487C6.322,13.317,4,18.384,4,24c0,11.046,8.954,20,20,20	s20-8.954,20-20C44,18.384,41.678,13.317,37.951,9.684z"></path>
</svg>
</svg>