<svg xmlns="http://www.w3.org/2000/svg" xmlns:xlink="http://www.w3.org/1999/xlink" version="1.0" x="0px" y="0px" viewBox="0 0 50 50" class="icon icons8-Overwatch-Filled" >    <path d="M25,2C12.318,2,2,12.318,2,25c0,12.683,10.318,23,23,23c12.683,0,23-10.317,23-23C48,12.318,37.683,2,25,2z M25,4 c5.032,0,9.655,1.783,13.275,4.745l-2.602,3.041C32.753,9.423,29.041,8,25,8c-4.041,0-7.753,1.423-10.673,3.786l-2.602-3.041 C15.345,5.783,19.967,4,25,4z M37.969,32.528l-8.137-7.749L26,15.796v15.2l7.913,7.292C31.366,39.999,28.3,41,25,41 s-6.366-1.001-8.913-2.713L24,30.995v-15.2l-3.832,8.983l-8.137,7.749C10.699,30.243,10,27.664,10,25c0-8.271,6.729-15,15-15 c8.271,0,15,6.729,15,15C40,27.664,39.301,30.244,37.969,32.528z"></path></svg>