<svg version="1.1" xmlns="http://www.w3.org/2000/svg" xmlns:xlink="http://www.w3.org/1999/xlink" width="178" height="51" viewBox="0 0 178 51">
<g id="logo-header.svg">
<g id="logo-header.svg">
<path id="indulge" d="M236.056,42.716 C236.056,42.716 235.528,45.004 235.528,45.004 L212.938,45.004 C212.938,45.004 212.879,45.239 212.879,45.239 C211.295,52.163 213.349,57.209 217.045,57.209 C221.446,57.209 224.791,55.683 229.543,49.053 C229.543,49.053 233.474,51.693 233.474,51.693 C227.314,58.910 221.035,61.081 216.048,61.081 C203.667,61.081 198.973,54.158 201.555,42.540 C204.196,31.157 211.765,23.353 223.441,23.353 C234.765,23.353 238.579,31.685 236.056,42.716 zM222.854,27.284 C218.688,27.284 215.579,33.973 213.936,41.014 C213.936,41.014 224.438,41.014 224.438,41.014 C226.140,34.384 226.551,27.284 222.854,27.284 zM174.464,67.008 C167.833,67.008 161.555,64.778 161.438,57.267 C161.438,57.267 170.122,57.267 170.122,57.267 C170.004,61.023 171.295,63.076 175.226,63.076 C179.803,63.076 182.033,58.969 183.147,54.099 C181.211,55.038 179.275,55.683 176.869,55.683 C165.545,55.683 160.792,49.816 163.198,39.548 C165.369,29.984 173.407,23.353 184.438,23.353 C186.081,23.353 188.370,23.705 190.071,24.175 C190.071,24.175 201.865,24.175 201.865,24.175 C201.865,24.175 195.645,51.224 195.645,51.224 C193.240,61.492 184.908,67.008 174.464,67.008 zM183.558,27.167 C179.158,27.167 176.400,33.387 174.992,39.548 C173.583,45.650 173.466,51.752 177.925,51.752 C182.385,51.752 185.084,45.708 186.551,39.548 C187.900,33.504 188.017,27.167 183.558,27.167 zM139.987,60.260 L151.135,11.736 L163.046,11.736 L151.839,60.260 L139.987,60.260 zM122.929,60.260 C120.875,60.788 118.059,61.140 115.477,61.140 C105.444,61.140 100.808,56.739 102.803,48.114 C102.803,48.114 108.319,24.175 108.319,24.175 L120.112,24.175 C120.112,24.175 114.597,48.055 114.597,48.055 C113.482,52.573 113.423,57.209 116.885,57.209 C120.934,57.209 122.811,53.336 124.572,45.943 C124.572,45.943 129.559,24.175 129.559,24.175 L141.353,24.175 L133.021,60.260 C133.021,60.260 122.929,60.260 122.929,60.260 zM81.947,60.260 C79.776,60.847 77.723,61.081 75.200,61.081 C63.289,61.081 60.003,53.806 62.643,42.188 C65.284,30.688 72.266,23.295 83.942,23.295 C85.761,23.295 88.636,24.057 89.634,25.583 C89.634,25.583 92.861,11.736 92.861,11.736 L104.713,11.736 L93.506,60.260 C93.506,60.260 81.947,60.260 81.947,60.260 zM83.649,27.226 C78.896,27.226 76.197,34.443 74.437,42.188 C72.677,49.816 71.973,57.209 76.725,57.209 C81.419,57.209 84.118,49.816 85.879,42.188 C87.639,34.443 88.402,27.226 83.649,27.226 zM53.741,60.260 L41.888,60.260 C41.888,60.260 47.228,37.142 47.228,37.142 C48.519,31.568 47.873,27.402 44.764,27.402 C40.832,27.402 38.485,32.448 36.960,38.843 C36.960,38.843 32.031,60.260 32.031,60.260 L20.237,60.260 L28.511,24.175 C28.511,24.175 39.072,24.175 39.072,24.175 C41.067,23.705 43.942,23.471 46.113,23.471 C56.381,23.471 61.251,27.813 59.256,36.496 C59.256,36.496 53.741,60.260 53.741,60.260 zM15.568,22.121 C11.167,22.121 9.524,19.950 10.522,15.843 C11.460,11.736 14.042,9.565 18.443,9.565 C22.961,9.565 24.545,11.736 23.606,15.843 C22.609,19.950 20.086,22.121 15.568,22.121 zM12.751,60.260 L0.899,60.260 L8.644,26.346 L20.555,26.346 L12.751,60.260 z" fill="#FFFFFF" />
<path id="arrow-bottom" d="M197.841,0.713 L215.174,0.713 L203.174,15.380 L197.841,0.713 z" fill="#FFFFFF" />
</g>
</g>
</svg>
