<svg version="1.1" xmlns="http://www.w3.org/2000/svg" xmlns:xlink="http://www.w3.org/1999/xlink" width="900" height="28" viewBox="0 0 900 28">
<g id="bg-circle">
<path id="svg-logo-aware" d="M146.891,21.335 C146.691,21.544 146.423,21.647 146.087,21.647 C146.087,21.647 137.951,21.647 137.951,21.647 C138.079,22.736 138.487,23.600 139.175,24.240 C139.863,24.880 140.823,25.199 142.055,25.199 C143.287,25.199 144.319,24.992 145.151,24.576 C145.439,24.432 145.687,24.360 145.895,24.360 C146.103,24.360 146.303,24.448 146.495,24.624 C146.687,24.800 146.783,25.000 146.783,25.224 C146.783,25.640 146.611,25.940 146.267,26.123 C145.923,26.308 145.615,26.464 145.343,26.592 C145.071,26.720 144.775,26.831 144.455,26.927 C143.735,27.135 142.903,27.240 141.959,27.240 C139.991,27.240 138.463,26.687 137.375,25.583 C136.287,24.480 135.743,22.912 135.743,20.880 C135.743,19.120 136.199,17.656 137.111,16.488 C138.135,15.176 139.591,14.519 141.479,14.519 C143.271,14.519 144.687,15.128 145.727,16.344 C146.703,17.480 147.191,18.888 147.191,20.567 C147.191,20.872 147.091,21.128 146.891,21.335 zM143.783,17.184 C143.143,16.640 142.375,16.367 141.479,16.367 C140.055,16.367 139.015,17.000 138.359,18.264 C138.119,18.712 137.983,19.248 137.951,19.872 C137.951,19.872 145.031,19.872 145.031,19.872 C144.967,18.736 144.551,17.840 143.783,17.184 zM125.999,16.631 C125.999,16.631 125.879,16.631 125.879,16.631 C125.079,16.631 124.363,16.828 123.731,17.220 C123.099,17.612 122.575,18.119 122.159,18.744 C122.159,18.744 122.159,26.039 122.159,26.039 C122.159,26.344 122.051,26.600 121.835,26.807 C121.619,27.015 121.359,27.120 121.055,27.120 C120.751,27.120 120.495,27.015 120.287,26.807 C120.079,26.600 119.975,26.344 119.975,26.039 C119.975,26.039 119.975,15.744 119.975,15.744 C119.975,15.440 120.079,15.180 120.287,14.963 C120.495,14.747 120.751,14.639 121.055,14.639 C121.359,14.639 121.619,14.747 121.835,14.963 C122.051,15.180 122.159,15.440 122.159,15.744 C122.159,15.744 122.159,16.776 122.159,16.776 C123.279,15.272 124.535,14.519 125.927,14.519 C125.927,14.519 126.047,14.519 126.047,14.519 C126.351,14.519 126.603,14.624 126.803,14.832 C127.003,15.040 127.103,15.299 127.103,15.612 C127.103,15.924 126.999,16.172 126.791,16.356 C126.583,16.540 126.319,16.631 125.999,16.631 zM107.975,27.120 C107.671,27.120 107.415,27.015 107.207,26.807 C106.999,26.600 106.895,26.344 106.895,26.039 C106.895,26.039 106.895,25.416 106.895,25.416 C106.463,25.864 105.883,26.279 105.155,26.663 C104.427,27.047 103.503,27.240 102.383,27.240 C101.279,27.240 100.359,26.920 99.623,26.279 C98.855,25.607 98.471,24.728 98.471,23.640 C98.471,22.456 98.919,21.528 99.815,20.856 C100.791,20.120 102.183,19.752 103.991,19.752 C103.991,19.752 106.895,19.752 106.895,19.752 C106.895,19.752 106.895,19.560 106.895,19.560 C106.895,18.488 106.631,17.724 106.103,17.268 C105.575,16.811 104.767,16.584 103.679,16.584 C102.751,16.584 101.688,16.776 100.487,17.160 C100.359,17.192 100.215,17.208 100.055,17.208 C99.895,17.208 99.727,17.124 99.551,16.956 C99.375,16.788 99.287,16.528 99.287,16.176 C99.287,15.824 99.495,15.560 99.911,15.383 C101.255,14.807 102.647,14.519 104.087,14.519 C105.719,14.519 106.983,15.016 107.879,16.008 C108.679,16.872 109.079,17.952 109.079,19.248 C109.079,19.248 109.079,26.039 109.079,26.039 C109.079,26.344 108.971,26.600 108.755,26.807 C108.539,27.015 108.279,27.120 107.975,27.120 zM106.895,21.504 C106.895,21.504 104.279,21.504 104.279,21.504 C103.143,21.504 102.255,21.647 101.615,21.936 C100.975,22.224 100.655,22.712 100.655,23.400 C100.655,24.680 101.503,25.320 103.200,25.320 C103.951,25.320 104.651,25.136 105.299,24.768 C105.947,24.400 106.479,23.984 106.895,23.520 C106.895,23.520 106.895,21.504 106.895,21.504 zM86.304,26.112 C86.208,26.384 86.032,26.620 85.776,26.819 C85.520,27.020 85.232,27.120 84.912,27.120 C84.592,27.120 84.303,27.020 84.048,26.819 C83.792,26.620 83.607,26.376 83.496,26.088 C83.496,26.088 80.952,18.144 80.952,18.144 C80.952,18.144 78.408,26.088 78.408,26.088 C78.296,26.376 78.112,26.620 77.856,26.819 C77.600,27.020 77.312,27.120 76.992,27.120 C76.672,27.120 76.383,27.020 76.128,26.819 C75.872,26.620 75.696,26.384 75.600,26.112 C75.600,26.112 72.192,16.128 72.192,16.128 C72.144,15.984 72.120,15.804 72.120,15.588 C72.120,15.371 72.224,15.160 72.432,14.952 C72.639,14.744 72.880,14.639 73.152,14.639 C73.712,14.639 74.056,14.855 74.184,15.288 C74.184,15.288 76.992,24.527 76.992,24.527 C76.992,24.527 79.776,15.503 79.776,15.503 C79.856,15.248 80.004,15.040 80.220,14.880 C80.436,14.720 80.679,14.639 80.952,14.639 C81.224,14.639 81.468,14.720 81.684,14.880 C81.900,15.040 82.048,15.248 82.128,15.503 C82.128,15.503 84.912,24.527 84.912,24.527 C84.912,24.527 87.720,15.288 87.720,15.288 C87.848,14.855 88.191,14.639 88.752,14.639 C89.024,14.639 89.264,14.744 89.472,14.952 C89.679,15.160 89.784,15.371 89.784,15.588 C89.784,15.804 89.760,15.984 89.712,16.128 C89.712,16.128 86.304,26.112 86.304,26.112 zM81.000,12.000 C79.895,12.000 79.000,11.104 79.000,9.999 C79.000,8.895 79.895,8.000 81.000,8.000 C82.104,8.000 83.000,8.895 83.000,9.999 C83.000,11.104 82.104,12.000 81.000,12.000 zM61.416,27.120 C61.112,27.120 60.856,27.015 60.648,26.807 C60.440,26.600 60.336,26.344 60.336,26.039 C60.336,26.039 60.336,25.416 60.336,25.416 C59.904,25.864 59.324,26.279 58.596,26.663 C57.868,27.047 56.944,27.240 55.824,27.240 C54.720,27.240 53.800,26.920 53.064,26.279 C52.296,25.607 51.912,24.728 51.912,23.640 C51.912,22.456 52.360,21.528 53.256,20.856 C54.232,20.120 55.624,19.752 57.432,19.752 C57.432,19.752 60.336,19.752 60.336,19.752 C60.336,19.752 60.336,19.560 60.336,19.560 C60.336,18.488 60.072,17.724 59.544,17.268 C59.016,16.811 58.208,16.584 57.120,16.584 C56.192,16.584 55.128,16.776 53.928,17.160 C53.800,17.192 53.656,17.208 53.496,17.208 C53.336,17.208 53.168,17.124 52.992,16.956 C52.816,16.788 52.728,16.528 52.728,16.176 C52.728,15.824 52.936,15.560 53.352,15.383 C54.696,14.807 56.088,14.519 57.528,14.519 C59.160,14.519 60.424,15.016 61.320,16.008 C62.120,16.872 62.520,17.952 62.520,19.248 C62.520,19.248 62.520,26.039 62.520,26.039 C62.520,26.344 62.412,26.600 62.196,26.807 C61.980,27.015 61.720,27.120 61.416,27.120 zM60.336,21.504 C60.336,21.504 57.720,21.504 57.720,21.504 C56.584,21.504 55.696,21.647 55.056,21.936 C54.416,22.224 54.096,22.712 54.096,23.400 C54.096,24.680 54.944,25.320 56.640,25.320 C57.392,25.320 58.092,25.136 58.740,24.768 C59.388,24.400 59.920,23.984 60.336,23.520 C60.336,23.520 60.336,21.504 60.336,21.504 z" fill="#1F4BA5" />
<path id="svg-icon-hamberg" d="M1.500,12.000 C1.500,12.000 11.500,12.000 11.500,12.000 C12.328,12.000 13.000,12.671 13.000,13.500 C13.000,14.328 12.328,15.000 11.500,15.000 C11.500,15.000 1.500,15.000 1.500,15.000 C0.672,15.000 -0.000,14.328 -0.000,13.500 C-0.000,12.671 0.672,12.000 1.500,12.000 zM1.500,17.000 C1.500,17.000 11.500,17.000 11.500,17.000 C12.328,17.000 13.000,17.671 13.000,18.500 C13.000,19.328 12.328,20.000 11.500,20.000 C11.500,20.000 1.500,20.000 1.500,20.000 C0.672,20.000 -0.000,19.328 -0.000,18.500 C-0.000,17.671 0.672,17.000 1.500,17.000 zM1.500,22.000 C1.500,22.000 11.500,22.000 11.500,22.000 C12.328,22.000 13.000,22.671 13.000,23.500 C13.000,24.328 12.328,25.000 11.500,25.000 C11.500,25.000 1.500,25.000 1.500,25.000 C0.672,25.000 -0.000,24.328 -0.000,23.500 C-0.000,22.671 0.672,22.000 1.500,22.000 z" fill="#222222" />
<path id="svg-icon-arrow-d" d="M248.169,18.117 C248.169,18.117 248.171,18.116 248.171,18.116 C248.066,17.997 248.000,17.840 248.000,17.666 C248.000,17.298 248.288,17.000 248.643,17.000 C248.830,17.000 248.998,17.084 249.115,17.217 C249.115,17.217 249.117,17.216 249.117,17.216 L251.000,19.346 L252.883,17.216 C252.883,17.216 252.885,17.217 252.885,17.217 C253.002,17.084 253.170,17.000 253.357,17.000 C253.712,17.000 254.000,17.298 254.000,17.666 C254.000,17.840 253.934,17.997 253.829,18.116 C253.829,18.116 253.831,18.117 253.831,18.117 C253.831,18.117 251.474,20.784 251.474,20.784 C251.352,20.921 251.180,21.000 251.000,21.000 C250.820,21.000 250.648,20.921 250.526,20.784 C250.526,20.784 248.169,18.117 248.169,18.117 z" fill="#1F4BA5" />
<path id="svg-icon-search" d="M899.717,25.717 C899.327,26.108 898.694,26.108 898.303,25.717 C898.303,25.717 895.154,22.567 895.154,22.567 C892.412,24.617 888.524,24.423 886.032,21.932 C883.299,19.198 883.299,14.766 886.032,12.032 C888.766,9.298 893.198,9.298 895.932,12.032 C898.423,14.524 898.618,18.412 896.568,21.153 C896.568,21.153 899.717,24.303 899.717,24.303 C900.108,24.693 900.108,25.327 899.717,25.717 zM894.518,13.446 C892.565,11.494 889.399,11.494 887.447,13.446 C885.494,15.399 885.494,18.565 887.447,20.517 C889.399,22.470 892.565,22.470 894.518,20.517 C896.470,18.565 896.470,15.399 894.518,13.446 z" fill="#222222" />
<path id="svg-icon-face" d="M842.999,25.999 C842.447,25.999 842.000,25.551 842.000,24.999 C842.000,23.561 841.384,22.275 840.413,21.362 C839.518,22.370 838.323,22.999 836.999,22.999 C835.676,22.999 834.481,22.370 833.586,21.362 C832.615,22.275 832.000,23.561 832.000,24.999 C832.000,24.999 832.000,24.999 832.000,24.999 C832.000,25.551 831.552,25.999 830.999,25.999 C830.447,25.999 830.000,25.551 830.000,24.999 C830.000,22.840 830.998,20.933 832.535,19.649 C832.203,18.847 832.000,17.955 832.000,16.999 C832.000,13.686 834.238,10.999 836.999,10.999 C839.761,10.999 842.000,13.686 842.000,16.999 C842.000,17.955 841.796,18.847 841.464,19.649 C843.001,20.933 843.999,22.840 843.999,24.999 C843.999,24.999 843.999,24.999 843.999,24.999 C843.999,25.551 843.552,25.999 842.999,25.999 zM836.999,12.999 C835.343,12.999 833.999,14.790 833.999,16.999 C833.999,19.208 835.343,20.999 836.999,20.999 C838.656,20.999 839.999,19.208 839.999,16.999 C839.999,14.790 838.656,12.999 836.999,12.999 z" fill="#222222" />
<path id="svg-icon-bag" d="M788.000,26.000 C788.000,26.000 776.000,26.000 776.000,26.000 C774.895,26.000 774.000,25.104 774.000,24.000 C774.000,24.000 775.000,18.000 775.000,18.000 C775.260,16.960 775.895,16.000 777.000,16.000 C777.000,16.000 778.000,16.000 778.000,16.000 C778.000,16.000 778.000,14.000 778.000,14.000 C778.000,11.791 779.791,10.000 782.000,10.000 C784.209,10.000 786.000,11.791 786.000,14.000 C786.000,14.000 786.000,16.000 786.000,16.000 C786.000,16.000 787.000,16.000 787.000,16.000 C788.105,16.000 789.000,16.895 789.000,18.000 C789.000,18.000 790.000,24.000 790.000,24.000 C790.000,25.104 789.105,26.000 788.000,26.000 zM784.000,14.000 C784.000,12.895 783.105,12.000 782.000,12.000 C780.895,12.000 780.000,12.895 780.000,14.000 C780.000,14.000 780.000,16.000 780.000,16.000 L784.000,16.000 C784.000,16.000 784.000,14.000 784.000,14.000 zM787.012,18.000 L786.000,18.000 C786.000,18.000 786.000,19.000 786.000,19.000 C786.000,19.552 785.552,20.000 785.000,20.000 C784.448,20.000 784.000,19.552 784.000,19.000 C784.000,19.000 784.000,18.000 784.000,18.000 L780.000,18.000 C780.000,18.000 780.000,19.000 780.000,19.000 C780.000,19.552 779.552,20.000 779.000,20.000 C778.448,20.000 778.000,19.552 778.000,19.000 C778.000,19.000 778.000,18.000 778.000,18.000 L776.988,18.000 L776.001,24.000 L787.991,24.000 L787.012,18.000 z" fill="#222222" />
<path id="bg-circle" d="M792.000,-0.000 C796.418,-0.000 800.000,3.581 800.000,8.000 C800.000,12.418 796.418,16.000 792.000,16.000 C787.582,16.000 784.000,12.418 784.000,8.000 C784.000,3.581 787.582,-0.000 792.000,-0.000 z" fill="#1F4BA5" />
</g>
</svg>
