<svg version="1.1" xmlns="http://www.w3.org/2000/svg" xmlns:xlink="http://www.w3.org/1999/xlink" width="167" height="18" viewBox="0 0 167 18">
<g id="fa-twitter">
<path id="fa-facebook-f" d="M164.361,-0.007 C163.024,-0.007 161.954,0.362 161.150,1.102 C160.346,1.841 159.944,2.881 159.944,4.222 C159.944,4.222 159.944,6.580 159.944,6.580 L156.988,6.580 L156.988,9.782 L159.944,9.782 L159.944,17.992 L163.492,17.992 L163.492,9.782 L166.436,9.782 L166.888,6.580 L163.492,6.580 C163.492,6.580 163.492,4.536 163.492,4.536 C163.492,4.017 163.608,3.627 163.839,3.368 C164.071,3.108 164.519,2.978 165.184,2.978 C165.184,2.978 167.004,2.978 167.004,2.978 C167.004,2.978 167.004,0.123 167.004,0.123 C166.378,0.036 165.497,-0.007 164.361,-0.007 C164.361,-0.007 164.361,-0.007 164.361,-0.007 z" fill="#656565" />
<path id="fa-pinterest-p" d="M104.112,7.192 C104.186,7.564 104.296,7.932 104.442,8.297 C104.588,8.662 104.795,8.984 105.062,9.264 C105.330,9.544 105.637,9.735 105.983,9.837 C106.084,9.858 106.142,9.868 106.155,9.868 C106.304,9.868 106.430,9.714 106.532,9.407 C106.633,9.100 106.684,8.851 106.684,8.660 C106.684,8.599 106.642,8.495 106.557,8.348 C106.472,8.202 106.381,8.046 106.282,7.883 C106.184,7.719 106.093,7.497 106.008,7.217 C105.923,6.938 105.881,6.648 105.881,6.348 C105.881,4.990 106.335,3.870 107.243,2.986 C108.151,2.103 109.283,1.661 110.639,1.661 C111.832,1.661 112.799,1.990 113.542,2.649 C114.284,3.307 114.655,4.226 114.655,5.406 C114.655,5.727 114.633,6.066 114.589,6.425 C114.545,6.783 114.477,7.161 114.385,7.560 C114.294,7.959 114.165,8.336 113.999,8.691 C113.833,9.046 113.643,9.370 113.430,9.663 C113.216,9.957 112.950,10.188 112.632,10.359 C112.313,10.530 111.967,10.615 111.595,10.615 C111.161,10.615 110.791,10.473 110.486,10.190 C110.181,9.907 110.029,9.551 110.029,9.121 C110.029,8.698 110.178,8.060 110.476,7.207 C110.774,6.355 110.924,5.703 110.924,5.253 C110.924,4.830 110.808,4.480 110.578,4.204 C110.347,3.928 110.025,3.790 109.612,3.790 C109.070,3.790 108.622,4.039 108.270,4.537 C107.918,5.035 107.741,5.567 107.741,6.133 C107.741,6.842 107.850,7.419 108.067,7.862 C108.019,8.067 107.843,8.759 107.538,9.939 C107.233,11.120 107.008,12.100 106.862,12.881 C106.716,13.662 106.643,14.367 106.643,14.994 C106.643,15.206 106.694,15.847 106.796,16.918 C106.796,16.918 106.887,17.021 106.887,17.021 C106.887,17.021 107.030,16.969 107.030,16.969 C107.280,16.628 107.491,16.333 107.660,16.084 C107.829,15.835 107.985,15.571 108.128,15.291 C108.270,15.011 108.378,14.798 108.453,14.652 C108.528,14.505 108.616,14.263 108.717,13.925 C108.819,13.587 108.889,13.345 108.926,13.199 C108.963,13.052 109.043,12.728 109.165,12.226 C109.287,11.725 109.382,11.341 109.449,11.075 C109.646,11.457 109.971,11.757 110.425,11.976 C110.879,12.194 111.337,12.303 111.798,12.303 C112.496,12.303 113.137,12.172 113.720,11.909 C114.302,11.647 114.794,11.295 115.194,10.855 C115.594,10.415 115.932,9.905 116.210,9.325 C116.488,8.746 116.692,8.142 116.820,7.514 C116.949,6.887 117.014,6.245 117.014,5.590 C117.014,4.499 116.725,3.520 116.149,2.654 C115.573,1.787 114.824,1.127 113.903,0.674 C112.981,0.220 111.984,-0.007 110.913,-0.007 C110.215,-0.007 109.531,0.082 108.860,0.259 C108.189,0.437 107.562,0.703 106.979,1.057 C106.396,1.412 105.881,1.832 105.434,2.316 C104.986,2.801 104.635,3.368 104.381,4.020 C104.127,4.671 104.000,5.365 104.000,6.102 C104.000,6.457 104.037,6.820 104.112,7.192 z" fill="#656565" />
<path id="fa-instagram" d="M66.006,15.994 C65.881,16.116 65.732,16.176 65.558,16.176 C65.558,16.176 54.418,16.176 54.418,16.176 C54.237,16.176 54.086,16.116 53.964,15.994 C53.843,15.872 53.782,15.721 53.782,15.541 C53.782,15.541 53.782,8.788 53.782,8.788 C53.782,8.788 55.251,8.788 55.251,8.788 C55.112,9.225 55.043,9.680 55.043,10.153 C55.043,11.487 55.529,12.624 56.502,13.566 C57.475,14.507 58.645,14.978 60.014,14.978 C60.917,14.978 61.751,14.763 62.515,14.332 C63.279,13.901 63.884,13.316 64.328,12.576 C64.773,11.836 64.995,11.028 64.995,10.153 C64.995,9.680 64.926,9.225 64.787,8.788 C64.787,8.788 66.194,8.788 66.194,8.788 C66.194,8.788 66.194,15.541 66.194,15.541 C66.194,15.721 66.131,15.872 66.006,15.994 zM60.014,13.102 C59.131,13.102 58.376,12.798 57.747,12.190 C57.118,11.582 56.804,10.848 56.804,9.986 C56.804,9.125 57.118,8.390 57.747,7.782 C58.376,7.174 59.131,6.870 60.014,6.870 C60.903,6.870 61.662,7.174 62.291,7.782 C62.920,8.390 63.234,9.125 63.234,9.986 C63.234,10.848 62.920,11.582 62.291,12.190 C61.662,12.798 60.903,13.102 60.014,13.102 C60.014,13.102 60.014,13.102 60.014,13.102 zM65.985,6.745 C65.846,6.884 65.676,6.954 65.475,6.954 C65.475,6.954 63.661,6.954 63.661,6.954 C63.460,6.954 63.290,6.884 63.151,6.745 C63.012,6.606 62.942,6.436 62.942,6.235 C62.942,6.235 62.942,4.515 62.942,4.515 C62.942,4.321 63.012,4.152 63.151,4.010 C63.290,3.867 63.460,3.796 63.661,3.796 C63.661,3.796 65.475,3.796 65.475,3.796 C65.676,3.796 65.846,3.867 65.985,4.010 C66.124,4.152 66.194,4.321 66.194,4.515 C66.194,4.515 66.194,6.235 66.194,6.235 C66.194,6.436 66.124,6.606 65.985,6.745 zM67.403,2.618 C67.000,2.215 66.517,2.014 65.954,2.014 C65.954,2.014 54.053,2.014 54.053,2.014 C53.490,2.014 53.007,2.215 52.604,2.618 C52.201,3.021 52.000,3.504 52.000,4.067 C52.000,4.067 52.000,15.968 52.000,15.968 C52.000,16.531 52.201,17.013 52.604,17.416 C53.007,17.819 53.490,18.021 54.053,18.021 C54.053,18.021 65.954,18.021 65.954,18.021 C66.517,18.021 67.000,17.819 67.403,17.416 C67.805,17.013 68.007,16.531 68.007,15.968 C68.007,15.968 68.007,4.067 68.007,4.067 C68.007,3.504 67.805,3.021 67.403,2.618 z" fill="#656565" />
<path id="fa-twitter" d="M14.120,5.040 C14.830,4.613 15.310,4.010 15.560,3.230 C14.911,3.617 14.218,3.881 13.481,4.024 C12.832,3.332 12.034,2.986 11.087,2.986 C10.181,2.986 9.408,3.307 8.769,3.947 C8.130,4.588 7.811,5.362 7.811,6.270 C7.811,6.514 7.838,6.765 7.892,7.023 C6.553,6.955 5.297,6.618 4.123,6.011 C2.950,5.405 1.954,4.596 1.136,3.586 C0.838,4.095 0.690,4.647 0.690,5.243 C0.690,5.806 0.822,6.328 1.085,6.809 C1.349,7.291 1.704,7.680 2.150,7.978 C1.623,7.958 1.129,7.819 0.669,7.562 C0.669,7.562 0.669,7.602 0.669,7.602 C0.669,8.395 0.918,9.092 1.415,9.692 C1.912,10.291 2.539,10.669 3.297,10.825 C3.013,10.900 2.725,10.937 2.434,10.937 C2.245,10.937 2.039,10.920 1.816,10.886 C2.025,11.544 2.411,12.084 2.972,12.508 C3.533,12.931 4.169,13.150 4.879,13.163 C3.689,14.099 2.333,14.566 0.811,14.566 C0.521,14.566 0.257,14.553 0.020,14.526 C1.542,15.509 3.219,16.000 5.052,16.000 C6.215,16.000 7.307,15.815 8.328,15.446 C9.349,15.077 10.221,14.582 10.945,13.961 C11.669,13.341 12.292,12.628 12.817,11.821 C13.341,11.015 13.731,10.173 13.988,9.295 C14.245,8.417 14.374,7.538 14.374,6.657 C14.374,6.467 14.370,6.325 14.363,6.230 C15.006,5.762 15.554,5.196 16.007,4.532 C15.378,4.803 14.749,4.972 14.120,5.040 C14.120,5.040 14.120,5.040 14.120,5.040 z" fill="#656565" />
</g>
</svg>
