<svg version="1.1" xmlns="http://www.w3.org/2000/svg" xmlns:xlink="http://www.w3.org/1999/xlink" width="97" height="20" viewBox="0 0 97 20">
<g id="svg-logo-aware.s">
<path id="svg-logo-aware.s" d="M95.891,13.335 C95.691,13.544 95.423,13.647 95.087,13.647 C95.087,13.647 86.951,13.647 86.951,13.647 C87.079,14.736 87.487,15.600 88.175,16.240 C88.863,16.880 89.823,17.199 91.055,17.199 C92.287,17.199 93.319,16.992 94.151,16.576 C94.439,16.432 94.687,16.360 94.895,16.360 C95.103,16.360 95.303,16.448 95.495,16.624 C95.687,16.800 95.783,17.000 95.783,17.224 C95.783,17.640 95.611,17.940 95.267,18.123 C94.923,18.308 94.615,18.464 94.343,18.592 C94.071,18.720 93.775,18.831 93.455,18.927 C92.735,19.135 91.903,19.240 90.959,19.240 C88.991,19.240 87.463,18.687 86.375,17.583 C85.287,16.480 84.743,14.912 84.743,12.880 C84.743,11.120 85.199,9.656 86.111,8.488 C87.135,7.176 88.591,6.519 90.479,6.519 C92.271,6.519 93.687,7.128 94.727,8.344 C95.703,9.480 96.191,10.888 96.191,12.567 C96.191,12.872 96.091,13.128 95.891,13.335 zM92.783,9.184 C92.143,8.640 91.375,8.367 90.479,8.367 C89.055,8.367 88.015,9.000 87.359,10.264 C87.119,10.712 86.983,11.248 86.951,11.872 C86.951,11.872 94.031,11.872 94.031,11.872 C93.967,10.736 93.551,9.840 92.783,9.184 zM74.999,8.631 C74.999,8.631 74.879,8.631 74.879,8.631 C74.079,8.631 73.363,8.828 72.731,9.220 C72.099,9.612 71.575,10.119 71.159,10.744 C71.159,10.744 71.159,18.039 71.159,18.039 C71.159,18.344 71.051,18.600 70.835,18.807 C70.619,19.015 70.359,19.120 70.055,19.120 C69.751,19.120 69.495,19.015 69.287,18.807 C69.079,18.600 68.975,18.344 68.975,18.039 C68.975,18.039 68.975,7.744 68.975,7.744 C68.975,7.440 69.079,7.180 69.287,6.963 C69.495,6.747 69.751,6.639 70.055,6.639 C70.359,6.639 70.619,6.747 70.835,6.963 C71.051,7.180 71.159,7.440 71.159,7.744 C71.159,7.744 71.159,8.776 71.159,8.776 C72.279,7.272 73.535,6.519 74.927,6.519 C74.927,6.519 75.047,6.519 75.047,6.519 C75.351,6.519 75.603,6.624 75.803,6.832 C76.003,7.040 76.103,7.299 76.103,7.612 C76.103,7.924 75.999,8.172 75.791,8.356 C75.583,8.540 75.319,8.631 74.999,8.631 zM56.975,19.120 C56.671,19.120 56.415,19.015 56.207,18.807 C55.999,18.600 55.895,18.344 55.895,18.039 C55.895,18.039 55.895,17.416 55.895,17.416 C55.463,17.864 54.883,18.279 54.155,18.663 C53.427,19.047 52.503,19.240 51.383,19.240 C50.279,19.240 49.359,18.920 48.623,18.279 C47.855,17.607 47.471,16.728 47.471,15.640 C47.471,14.456 47.919,13.528 48.815,12.856 C49.791,12.120 51.183,11.752 52.991,11.752 C52.991,11.752 55.895,11.752 55.895,11.752 C55.895,11.752 55.895,11.560 55.895,11.560 C55.895,10.488 55.631,9.724 55.103,9.268 C54.575,8.811 53.767,8.584 52.679,8.584 C51.751,8.584 50.688,8.776 49.487,9.160 C49.359,9.192 49.215,9.208 49.055,9.208 C48.895,9.208 48.727,9.124 48.551,8.956 C48.375,8.788 48.287,8.528 48.287,8.176 C48.287,7.824 48.495,7.560 48.911,7.383 C50.255,6.807 51.647,6.519 53.087,6.519 C54.719,6.519 55.983,7.016 56.879,8.008 C57.679,8.872 58.079,9.952 58.079,11.248 C58.079,11.248 58.079,18.039 58.079,18.039 C58.079,18.344 57.971,18.600 57.755,18.807 C57.539,19.015 57.279,19.120 56.975,19.120 zM55.895,13.504 C55.895,13.504 53.279,13.504 53.279,13.504 C52.143,13.504 51.255,13.647 50.615,13.936 C49.975,14.224 49.655,14.712 49.655,15.400 C49.655,16.680 50.503,17.320 52.200,17.320 C52.951,17.320 53.651,17.136 54.299,16.768 C54.947,16.400 55.479,15.984 55.895,15.520 C55.895,15.520 55.895,13.504 55.895,13.504 zM35.304,18.112 C35.208,18.384 35.032,18.620 34.776,18.819 C34.520,19.020 34.232,19.120 33.912,19.120 C33.592,19.120 33.303,19.020 33.048,18.819 C32.792,18.620 32.607,18.376 32.496,18.088 C32.496,18.088 29.952,10.144 29.952,10.144 C29.952,10.144 27.408,18.088 27.408,18.088 C27.296,18.376 27.112,18.620 26.856,18.819 C26.600,19.020 26.312,19.120 25.992,19.120 C25.672,19.120 25.383,19.020 25.128,18.819 C24.872,18.620 24.696,18.384 24.600,18.112 C24.600,18.112 21.192,8.128 21.192,8.128 C21.144,7.984 21.120,7.804 21.120,7.588 C21.120,7.371 21.224,7.160 21.432,6.952 C21.639,6.744 21.880,6.639 22.152,6.639 C22.712,6.639 23.056,6.855 23.184,7.288 C23.184,7.288 25.992,16.527 25.992,16.527 C25.992,16.527 28.776,7.503 28.776,7.503 C28.856,7.248 29.004,7.040 29.220,6.880 C29.436,6.720 29.679,6.639 29.952,6.639 C30.224,6.639 30.468,6.720 30.684,6.880 C30.900,7.040 31.048,7.248 31.128,7.503 C31.128,7.503 33.912,16.527 33.912,16.527 C33.912,16.527 36.720,7.288 36.720,7.288 C36.848,6.855 37.191,6.639 37.752,6.639 C38.024,6.639 38.264,6.744 38.472,6.952 C38.679,7.160 38.784,7.371 38.784,7.588 C38.784,7.804 38.760,7.984 38.712,8.128 C38.712,8.128 35.304,18.112 35.304,18.112 zM30.000,4.000 C28.895,4.000 28.000,3.104 28.000,1.999 C28.000,0.895 28.895,-0.000 30.000,-0.000 C31.104,-0.000 32.000,0.895 32.000,1.999 C32.000,3.104 31.104,4.000 30.000,4.000 zM10.416,19.120 C10.112,19.120 9.856,19.015 9.648,18.807 C9.440,18.600 9.336,18.344 9.336,18.039 C9.336,18.039 9.336,17.416 9.336,17.416 C8.904,17.864 8.324,18.279 7.596,18.663 C6.868,19.047 5.944,19.240 4.824,19.240 C3.720,19.240 2.800,18.920 2.064,18.279 C1.296,17.607 0.912,16.728 0.912,15.640 C0.912,14.456 1.360,13.528 2.256,12.856 C3.232,12.120 4.624,11.752 6.432,11.752 C6.432,11.752 9.336,11.752 9.336,11.752 C9.336,11.752 9.336,11.560 9.336,11.560 C9.336,10.488 9.072,9.724 8.544,9.268 C8.016,8.811 7.208,8.584 6.120,8.584 C5.192,8.584 4.128,8.776 2.928,9.160 C2.800,9.192 2.656,9.208 2.496,9.208 C2.336,9.208 2.168,9.124 1.992,8.956 C1.816,8.788 1.728,8.528 1.728,8.176 C1.728,7.824 1.936,7.560 2.352,7.383 C3.696,6.807 5.088,6.519 6.528,6.519 C8.160,6.519 9.424,7.016 10.320,8.008 C11.120,8.872 11.520,9.952 11.520,11.248 C11.520,11.248 11.520,18.039 11.520,18.039 C11.520,18.344 11.412,18.600 11.196,18.807 C10.980,19.015 10.720,19.120 10.416,19.120 zM9.336,13.504 C9.336,13.504 6.720,13.504 6.720,13.504 C5.584,13.504 4.696,13.647 4.056,13.936 C3.416,14.224 3.096,14.712 3.096,15.400 C3.096,16.680 3.944,17.320 5.640,17.320 C6.392,17.320 7.092,17.136 7.740,16.768 C8.388,16.400 8.920,15.984 9.336,15.520 C9.336,15.520 9.336,13.504 9.336,13.504 z" fill="#1F4BA5" />
</g>
</svg>
